# xmcd
# Copyright (C) 1995-1998 Ti Kan
#
# Track frame offsets:
#       150
#       18162
#       37555
#       52688
#       57511
#       73489
#       81494
#       93524
#       108343
#       124601
#       130467
#       148092
#
# Disc length: 2128 seconds
#
# Revision: 0
# Processed by: cddbd v1.5.2PL0 Copyright (c) Steve Scherf et al.
# Submitted via: CD-Import v1.0
#
DISCID=a4084e0c
DTITLE=Dimitri - We Have Lost Our Way To Rome
DYEAR=09
DGENRE=
TTITLE0=Time Is Running Out
TTITLE1=Tired
TTITLE2=Sand
TTITLE3=Empty Skit
TTITLE4=We Have Lost Our Way To Rome
TTITLE5=Pause
TTITLE6=Klaviermelodie
TTITLE7=Fall
TTITLE8=Still
TTITLE9=Go On
TTITLE10=Poor Rich Man
TTITLE11=Catch 22
EXTD=
EXTT0=
EXTT1=
EXTT2=
EXTT3=
EXTT4=
EXTT5=
EXTT6=
EXTT7=
EXTT8=
EXTT9=
EXTT10=
EXTT11=
PLAYORDER=
